# 3ds Max Wavefront OBJ Exporter v0.97b - (c)2007 guruware
# File Created: 07.04.2020 10:03:42

#
# object Box1823
#

v  24.8555 6.7240 -213.0525
v  24.8555 13.9585 -213.0526
v  24.8555 13.9585 -226.2811
v  24.8555 6.7240 -226.2812
v  43.0193 6.7240 -213.0525
v  43.0193 6.7240 -226.2812
v  43.0192 13.9585 226.2813
v  24.8554 13.9585 226.2813
v  24.8554 6.7240 226.2813
v  43.0193 6.7240 226.2813
v  43.0192 118.6111 213.0909
v  24.8554 118.6111 213.0909
v  24.8554 118.6111 226.2813
v  43.0192 118.6111 226.2813
v  43.0193 106.6701 -226.2811
v  24.8555 106.6701 -226.2811
v  24.8555 118.6111 -226.2811
v  43.0193 118.6111 -226.2811
v  24.8554 106.6700 213.0909
v  24.8554 106.6701 226.2813
v  43.0192 106.6701 226.2813
v  43.0193 13.9585 -226.2811
v  24.8554 13.9585 213.0909
v  24.8555 6.7240 0.0279
v  24.8554 13.9585 0.0279
v  24.8555 13.9585 -4.0987
v  24.8555 6.7240 -4.0988
v  43.0193 6.7240 0.0279
v  43.0193 6.7240 -4.0988
v  43.0193 118.6111 -187.5455
v  24.8555 118.6111 -187.5455
v  24.8555 118.6111 -161.4263
v  43.0193 118.6111 -161.4263
v  43.0193 118.6111 0.0279
v  24.8554 118.6111 0.0279
v  24.8554 118.6111 4.1546
v  43.0193 118.6111 4.1546
v  24.8555 106.6701 0.0279
v  24.8554 106.6701 4.1546
v  24.8555 13.9585 4.1547
v  24.8554 6.7240 213.0909
v  24.8555 6.7240 4.1546
v  43.0193 6.7240 213.0909
v  43.0193 6.7240 4.1546
v  24.8555 118.6111 -213.0525
v  43.0193 118.6111 -213.0525
v  24.8555 106.6701 -213.0526
v  43.0193 118.6111 163.8311
v  24.8554 118.6111 163.8311
v  24.8554 118.6111 189.9481
v  43.0192 118.6111 189.9481
v  24.8555 106.6701 -187.5456
v  25.6115 106.6701 -187.5456
v  25.6115 106.6701 -161.4263
v  24.8555 106.6701 -161.4263
v  25.6115 13.9585 -213.0525
v  25.6115 106.6701 -213.0526
v  25.6114 13.9585 -4.0988
v  24.8555 106.6701 -4.0987
v  25.6114 106.6700 -4.0987
v  25.6114 13.9585 4.1547
v  25.6114 106.6701 4.1546
v  25.6114 13.9585 213.0909
v  25.6114 106.6700 213.0909
v  24.8554 106.6700 163.8311
v  25.6114 106.6701 163.8311
v  25.6114 106.6701 189.9481
v  24.8554 106.6701 189.9481
v  24.8555 118.6111 -4.0988
v  43.0193 118.6111 -4.0988
v  24.8555 115.3358 -184.2659
v  24.8555 115.3358 -164.7060
v  24.8555 109.9454 -184.2658
v  24.8555 109.9454 -164.7060
v  24.8554 115.3357 167.1108
v  24.8554 115.3357 186.6684
v  24.8554 109.9454 167.1108
v  24.8554 109.9454 186.6684
v  24.8555 115.3358 -209.7728
v  24.8555 115.3357 -190.8252
v  24.8555 109.9454 -209.7729
v  24.8555 109.9454 -190.8251
v  24.8554 109.9454 209.8112
v  24.8554 109.9454 193.2278
v  24.8554 115.3358 209.8112
v  24.8554 115.3357 193.2278
v  25.3555 115.3358 -184.2659
v  25.3555 115.3358 -164.7061
v  25.3555 109.9454 -184.2659
v  25.3555 109.9454 -164.7061
v  25.3554 115.3357 167.1108
v  25.3554 115.3357 186.6684
v  25.3554 109.9454 167.1108
v  25.3554 109.9454 186.6685
v  25.3555 115.3358 -209.7728
v  25.3555 115.3357 -190.8253
v  25.3555 109.9454 -209.7728
v  25.3555 109.9454 -190.8252
v  25.3554 109.9454 209.8112
v  25.3554 109.9453 193.2278
v  25.3554 115.3358 209.8112
v  25.3554 115.3357 193.2278
v  25.6303 69.8635 -109.8797
v  25.6303 50.7946 -109.8798
v  25.6304 50.7945 -107.2714
v  25.6303 69.8635 -107.2715
v  25.6303 69.8634 107.3186
v  25.6303 50.7945 107.3187
v  25.6303 50.7945 109.9269
v  25.6303 69.8634 109.9268
v  25.6303 106.6701 -109.8798
v  25.6303 91.9935 -109.8798
v  25.6303 91.9935 -107.2714
v  25.6303 106.6701 -107.2715
v  25.6303 90.4428 -109.8799
v  25.6303 90.4428 -107.2715
v  25.6303 71.3677 -109.8799
v  25.6303 71.3677 -107.2714
v  25.6303 13.9585 -107.2714
v  25.6303 28.6253 -107.2715
v  25.6303 28.6253 -109.8797
v  25.6303 13.9585 -109.8798
v  25.6303 30.1956 -107.2715
v  25.6303 30.1956 -109.8798
v  25.6303 49.2315 -107.2714
v  25.6303 49.2315 -109.8799
v  25.6303 106.6700 107.3187
v  25.6303 91.9935 107.3186
v  25.6303 91.9935 109.9268
v  25.6303 106.6700 109.9269
v  25.6303 90.4428 107.3186
v  25.6303 90.4428 109.9268
v  25.6303 71.3677 107.3186
v  25.6303 71.3677 109.9268
v  25.6303 13.9585 109.9268
v  25.6303 28.6253 109.9268
v  25.6303 28.6253 107.3186
v  25.6303 13.9585 107.3186
v  25.6303 30.1956 109.9268
v  25.6303 30.1956 107.3186
v  25.6303 49.2315 109.9269
v  25.6303 49.2315 107.3186
v  25.6303 91.9935 -213.0525
v  25.6303 90.4428 -213.0526
v  25.6303 90.4428 -4.0988
v  25.6303 91.9935 -4.0987
v  25.6303 71.3677 -213.0526
v  25.6303 69.8635 -213.0524
v  25.6303 69.8634 -4.0989
v  25.6303 71.3677 -4.0988
v  25.6303 28.6253 -4.0987
v  25.6303 30.1956 -4.0987
v  25.6303 30.1956 -213.0526
v  25.6303 28.6253 -213.0527
v  25.6303 49.2315 -4.0987
v  25.6303 50.7945 -4.0988
v  25.6303 50.7945 -213.0525
v  25.6304 49.2315 -213.0525
v  25.6303 91.9935 4.1547
v  25.6303 90.4428 4.1546
v  25.6303 90.4428 213.0909
v  25.6303 91.9935 213.0909
v  25.6303 71.3677 4.1546
v  25.6303 69.8635 4.1547
v  25.6303 69.8634 213.0909
v  25.6303 71.3677 213.0909
v  25.6303 28.6253 213.0909
v  25.6303 30.1956 213.0909
v  25.6303 30.1956 4.1547
v  25.6303 28.6253 4.1546
v  25.6303 49.2315 213.0909
v  25.6303 50.7945 213.0909
v  25.6303 50.7945 4.1547
v  25.6303 49.2315 4.1546
# 174 vertices

vn -1.0000 -0.0000 -0.0000
vn 0.0000 -1.0000 0.0000
vn -0.0000 0.0000 1.0000
vn -0.0000 1.0000 -0.0000
vn 0.0000 0.0000 -1.0000
vn 0.0000 -0.0000 -1.0000
vn 0.0000 -1.0000 -0.0000
vn -0.0000 1.0000 0.0000
vn -1.0000 -0.0000 0.0000
vn 0.0000 1.0000 0.0000
vn -0.0001 0.0000 1.0000
vn -0.0000 0.0000 -1.0000
vn 0.0000 0.0000 1.0000
vn -1.0000 0.0000 -0.0000
vn -0.0000 -1.0000 -0.0000
vn 0.0002 0.0000 1.0000
vn -0.0001 0.0000 -1.0000
vn -0.0001 -0.0000 1.0000
vn -0.0001 -0.0000 -1.0000
vn 0.0000 1.0000 -0.0000
vn -0.0000 -0.0000 -1.0000
vn -0.0000 -1.0000 0.0000
vn -0.0000 -0.0000 1.0000
vn -1.0000 0.0000 0.0000
# 24 vertex normals

vt 0.1141 0.5631 0.0000
vt 0.1138 0.5873 0.0000
vt 0.0695 0.5875 0.0000
vt 0.0695 0.5631 0.0000
vt 0.1141 0.5059 0.0000
vt 0.0696 0.5059 0.0000
vt 0.8325 0.0851 0.0000
vt 0.7754 0.0851 0.0000
vt 0.7753 0.0606 0.0000
vt 0.8325 0.0608 0.0000
vt 0.7311 0.4945 0.0000
vt 0.7311 0.4374 0.0000
vt 0.7754 0.4373 0.0000
vt 0.7754 0.4945 0.0000
vt 0.0123 0.8994 0.0000
vt 0.0695 0.8995 0.0000
vt 0.0695 0.9397 0.0000
vt 0.0123 0.9396 0.0000
vt 0.7312 0.3972 0.0000
vt 0.7754 0.3970 0.0000
vt 0.8326 0.4371 0.0000
vt 0.8325 0.3969 0.0000
vt 0.0124 0.5876 0.0000
vt 0.7312 0.0848 0.0000
vt 0.0123 0.5632 0.0000
vt 0.8299 0.5630 0.0000
vt 0.8299 0.5873 0.0000
vt 0.8176 0.5873 0.0000
vt 0.8175 0.5630 0.0000
vt 0.8299 0.5058 0.0000
vt 0.8175 0.5058 0.0000
vt 0.1997 0.9970 0.0000
vt 0.1997 0.9399 0.0000
vt 0.2876 0.9399 0.0000
vt 0.2875 0.9971 0.0000
vt 0.0151 0.4946 0.0000
vt 0.0151 0.4374 0.0000
vt 0.0241 0.4374 0.0000
vt 0.0241 0.4946 0.0000
vt 0.0151 0.3973 0.0000
vt 0.0289 0.3973 0.0000
vt 0.0151 0.0848 0.0000
vt 0.0289 0.0848 0.0000
vt 0.7309 0.0606 0.0000
vt 0.0291 0.0605 0.0000
vt 0.7309 0.0034 0.0000
vt 0.0291 0.0034 0.0000
vt 0.0695 0.9969 0.0000
vt 0.1139 0.9398 0.0000
vt 0.1139 0.9970 0.0000
vt 0.1138 0.8996 0.0000
vt 0.5605 0.4946 0.0000
vt 0.5605 0.4374 0.0000
vt 0.6532 0.4374 0.0000
vt 0.6532 0.4946 0.0000
vt 0.7752 0.0034 0.0000
vt 0.1998 0.8996 0.0000
vt 0.1998 0.8972 0.0000
vt 0.2874 0.8973 0.0000
vt 0.2875 0.8997 0.0000
vt 0.1148 0.5883 0.0000
vt 0.1149 0.8987 0.0000
vt 0.8167 0.5883 0.0000
vt 0.8176 0.8997 0.0000
vt 0.8165 0.8987 0.0000
vt 0.0299 0.0858 0.0000
vt 0.0300 0.3963 0.0000
vt 0.7302 0.0858 0.0000
vt 0.7301 0.3962 0.0000
vt 0.5654 0.3972 0.0000
vt 0.5655 0.3948 0.0000
vt 0.6531 0.3948 0.0000
vt 0.6532 0.3972 0.0000
vt 0.8175 0.9399 0.0000
vt 0.8160 0.9970 0.0000
vt 0.9199 0.0986 0.0000
vt 0.9797 0.0988 0.0000
vt 0.9797 0.8862 0.0000
vt 0.9197 0.8863 0.0000
vt 0.9018 0.8869 0.0000
vt 0.8420 0.8871 0.0000
vt 0.8418 0.0877 0.0000
vt 0.9018 0.0878 0.0000
vt 0.2106 0.9290 0.0000
vt 0.2767 0.9290 0.0000
vt 0.2106 0.9105 0.0000
vt 0.2767 0.9105 0.0000
vt 0.5763 0.4266 0.0000
vt 0.6423 0.4266 0.0000
vt 0.5763 0.4080 0.0000
vt 0.6423 0.4080 0.0000
vt 0.1248 0.9290 0.0000
vt 0.1888 0.9290 0.0000
vt 0.1248 0.9105 0.0000
vt 0.1888 0.9105 0.0000
vt 0.7202 0.4080 0.0000
vt 0.6641 0.4080 0.0000
vt 0.7202 0.4265 0.0000
vt 0.6641 0.4265 0.0000
vt 0.2112 0.9284 0.0000
vt 0.2760 0.9284 0.0000
vt 0.2112 0.9112 0.0000
vt 0.2760 0.9112 0.0000
vt 0.5769 0.4259 0.0000
vt 0.6417 0.4259 0.0000
vt 0.5769 0.4087 0.0000
vt 0.6417 0.4087 0.0000
vt 0.1254 0.9283 0.0000
vt 0.1882 0.9283 0.0000
vt 0.1254 0.9111 0.0000
vt 0.1882 0.9111 0.0000
vt 0.7195 0.4087 0.0000
vt 0.6648 0.4087 0.0000
vt 0.7195 0.4259 0.0000
vt 0.6648 0.4259 0.0000
vt 0.3769 0.2715 0.0000
vt 0.3769 0.2085 0.0000
vt 0.3855 0.2085 0.0000
vt 0.3855 0.2715 0.0000
vt 0.3769 0.3931 0.0000
vt 0.3769 0.3446 0.0000
vt 0.3855 0.3446 0.0000
vt 0.3855 0.3931 0.0000
vt 0.3769 0.3395 0.0000
vt 0.3855 0.3395 0.0000
vt 0.3769 0.2765 0.0000
vt 0.3855 0.2765 0.0000
vt 0.3855 0.0868 0.0000
vt 0.3855 0.1353 0.0000
vt 0.3769 0.1353 0.0000
vt 0.3769 0.0868 0.0000
vt 0.3855 0.1405 0.0000
vt 0.3769 0.1405 0.0000
vt 0.3855 0.2034 0.0000
vt 0.3769 0.2034 0.0000
vt 0.3855 0.0867 0.0000
vt 0.3855 0.1352 0.0000
vt 0.3769 0.1352 0.0000
vt 0.3769 0.0867 0.0000
vt 0.3855 0.1404 0.0000
vt 0.3769 0.1404 0.0000
vt 0.3855 0.2033 0.0000
vt 0.3769 0.2033 0.0000
vt 0.0365 0.3446 0.0000
vt 0.0365 0.3395 0.0000
vt 0.7259 0.3395 0.0000
vt 0.7259 0.3446 0.0000
vt 0.0365 0.2765 0.0000
vt 0.0365 0.2715 0.0000
vt 0.7259 0.2715 0.0000
vt 0.7259 0.2765 0.0000
vt 0.7259 0.1353 0.0000
vt 0.7259 0.1405 0.0000
vt 0.0365 0.1405 0.0000
vt 0.0365 0.1353 0.0000
vt 0.7259 0.2034 0.0000
vt 0.7259 0.2085 0.0000
vt 0.0365 0.2085 0.0000
vt 0.0365 0.2034 0.0000
vt 0.7260 0.3395 0.0000
vt 0.7260 0.3446 0.0000
vt 0.7260 0.2715 0.0000
vt 0.7260 0.2765 0.0000
vt 0.7260 0.1352 0.0000
vt 0.7260 0.1404 0.0000
vt 0.0365 0.1404 0.0000
vt 0.0365 0.1352 0.0000
vt 0.7260 0.2033 0.0000
vt 0.7260 0.2085 0.0000
vt 0.0365 0.2033 0.0000
vt 0.0151 0.0605 0.0000
vt 0.0151 0.0034 0.0000
vt 0.8299 0.9399 0.0000
vt 0.8299 0.9970 0.0000
vt 0.8299 0.8997 0.0000
# 175 texture coords

g Box1823
s 4
f 1/1/1 2/2/1 3/3/1 4/4/1 
s 8
f 5/5/2 1/1/2 4/4/2 6/6/2 
s 16
f 7/7/3 8/8/3 9/9/3 10/10/3 
s 32
f 11/11/4 12/12/4 13/13/4 14/14/4 
s 64
f 15/15/5 16/16/6 17/17/5 18/18/5 
s 4
f 13/13/1 12/12/1 19/19/1 20/20/1 
s 16
f 14/21/3 13/13/3 20/20/3 21/22/3 
s 64
f 22/23/5 3/3/5 16/16/6 15/15/5 
s 4
f 20/20/1 19/19/1 23/24/1 8/8/1 
s 16
f 21/22/3 20/20/3 8/8/3 7/7/3 
s 64
f 6/25/5 4/4/5 3/3/5 22/23/5 
s 4
f 24/26/1 25/27/1 26/28/1 27/29/1 
s 8
f 28/30/2 24/26/2 27/29/7 29/31/7 
s 32
f 30/32/4 31/33/4 32/34/4 33/35/4 
f 34/36/8 35/37/8 36/38/4 37/39/4 
s 4
f 35/37/1 38/40/1 39/41/1 36/38/1 
f 38/40/1 25/42/1 40/43/9 39/41/1 
f 41/44/9 23/24/1 40/43/9 42/45/1 
s 8
f 43/46/2 41/44/2 42/45/2 44/47/2 
s 4
f 27/29/1 26/28/1 2/2/1 1/1/1 
s 8
f 29/31/7 27/29/7 1/1/2 5/5/2 
s 32
f 18/48/4 17/17/4 45/49/4 46/50/4 
s 4
f 17/17/1 16/16/1 47/51/1 45/49/1 
f 16/16/1 3/3/1 2/2/1 47/51/1 
s 32
f 48/52/10 49/53/10 50/54/8 51/55/4 
s 4
f 9/9/1 8/8/1 23/24/1 41/44/9 
s 8
f 10/56/2 9/9/2 41/44/2 43/46/2 
s off
f 52/57/7 53/58/7 54/59/7 55/60/7 
f 47/51/11 2/2/11 56/61/11 57/62/11 
f 2/2/8 26/28/8 58/63/8 56/61/8 
f 26/28/12 59/64/12 60/65/12 58/63/12 
f 39/41/13 40/43/13 61/66/13 62/67/13 
f 40/43/10 23/24/10 63/68/10 61/66/10 
f 23/24/5 19/19/5 64/69/5 63/68/5 
f 65/70/2 66/71/2 67/72/2 68/73/2 
s 32
f 46/50/4 45/49/4 31/33/4 30/32/4 
f 69/74/8 70/75/8 33/35/4 32/34/4 
s 4
f 59/76/14 69/77/1 32/78/1 55/79/1 
s off
f 47/51/2 57/62/2 53/58/2 52/57/2 
f 60/65/15 59/64/15 55/60/15 54/59/15 
s 32
f 37/39/4 36/38/4 49/53/10 48/52/10 
f 12/12/4 11/11/4 51/55/4 50/54/8 
s 4
f 36/80/1 39/81/1 65/82/1 49/83/1 
s off
f 39/41/7 62/67/7 66/71/7 65/70/7 
f 64/69/15 19/19/15 68/73/15 67/72/15 
f 32/34/14 31/33/14 71/84/14 72/85/14 
f 31/33/14 52/57/14 73/86/14 71/84/14 
f 52/57/9 55/60/9 74/87/9 73/86/9 
f 55/60/1 32/34/1 72/85/1 74/87/1 
f 50/54/14 49/53/14 75/88/14 76/89/14 
f 49/53/1 65/70/1 77/90/1 75/88/1 
f 65/70/9 68/73/9 78/91/9 77/90/9 
f 68/73/1 50/54/1 76/89/1 78/91/1 
f 31/33/14 45/49/14 79/92/14 80/93/14 
f 45/49/1 47/51/1 81/94/1 79/92/1 
f 47/51/1 52/57/1 82/95/1 81/94/1 
f 52/57/1 31/33/1 80/93/1 82/95/1 
f 68/73/1 19/19/1 83/96/1 84/97/1 
f 19/19/1 12/12/1 85/98/1 83/96/1 
f 12/12/9 50/54/9 86/99/9 85/98/9 
f 50/54/1 68/73/1 84/97/1 86/99/1 
f 72/85/7 71/84/7 87/100/7 88/101/7 
f 71/84/16 73/86/16 89/102/16 87/100/16 
f 73/86/10 74/87/10 90/103/10 89/102/10 
f 74/87/17 72/85/17 88/101/17 90/103/17 
f 76/89/15 75/88/15 91/104/15 92/105/15 
f 75/88/13 77/90/13 93/106/13 91/104/13 
f 77/90/4 78/91/4 94/107/4 93/106/4 
f 78/91/6 76/89/6 92/105/6 94/107/6 
f 80/93/15 79/92/15 95/108/15 96/109/15 
f 79/92/18 81/94/18 97/110/18 95/108/18 
f 81/94/8 82/95/8 98/111/8 97/110/8 
f 82/95/19 80/93/19 96/109/19 98/111/19 
f 84/97/20 83/96/20 99/112/20 100/113/20 
f 83/96/21 85/98/21 101/114/21 99/112/21 
f 85/98/22 86/99/22 102/115/22 101/114/22 
f 86/99/23 84/97/23 100/113/23 102/115/23 
s 4
f 103/116/1 104/117/24 105/118/24 106/119/1 
f 107/116/1 108/117/1 109/118/1 110/119/1 
f 111/120/9 112/121/9 113/122/9 114/123/9 
f 112/121/9 115/124/9 116/125/9 113/122/9 
f 115/124/9 117/126/1 118/127/1 116/125/9 
f 117/126/1 103/116/1 106/119/1 118/127/1 
f 119/128/24 120/129/14 121/130/1 122/131/24 
f 120/129/14 123/132/24 124/133/24 121/130/1 
f 123/132/24 125/134/14 126/135/14 124/133/24 
f 125/134/14 105/118/24 104/117/24 126/135/14 
f 127/120/1 128/121/14 129/122/14 130/123/1 
f 128/121/14 131/124/1 132/125/14 129/122/14 
f 131/124/1 133/126/1 134/127/1 132/125/14 
f 133/126/1 107/116/1 110/119/1 134/127/1 
f 135/136/1 136/137/9 137/138/24 138/139/1 
f 136/137/9 139/140/1 140/141/14 137/138/24 
f 139/140/1 141/142/1 142/143/24 140/141/14 
f 141/142/1 109/118/1 108/117/1 142/143/24 
f 143/144/14 144/145/14 115/124/9 112/121/9 
f 145/146/1 146/147/1 113/122/9 116/125/9 
f 147/148/1 148/149/1 103/116/1 117/126/1 
f 149/150/9 150/151/9 118/127/1 106/119/1 
f 151/152/1 152/153/1 123/132/24 120/129/14 
f 153/154/1 154/155/1 121/130/1 124/133/24 
f 155/156/14 156/157/14 105/118/24 125/134/14 
f 157/158/1 158/159/1 126/135/14 104/117/24 
f 159/144/1 160/145/1 131/124/1 128/121/14 
f 161/160/14 162/161/14 129/122/14 132/125/14 
f 163/148/1 164/149/1 107/116/1 133/126/1 
f 165/162/24 166/163/24 134/127/1 110/119/1 
f 167/164/14 168/165/14 139/140/1 136/137/9 
f 169/166/14 170/167/14 137/138/24 140/141/14 
f 171/168/14 172/169/14 109/118/1 141/142/1 
f 173/158/1 174/170/1 142/143/24 108/117/1 
f 42/45/1 40/43/9 25/42/1 24/171/1 
s 8
f 44/47/2 42/45/2 24/171/2 28/172/2 
s 32
f 70/75/8 69/74/8 35/173/8 34/174/8 
s 4
f 69/74/1 59/64/14 38/175/1 35/173/1 
f 59/64/14 26/28/1 25/27/1 38/175/1 
# 116 polygons

#
# object Object1488
#

v  25.3555 115.3358 -184.2659
v  25.3555 109.9454 -184.2659
v  25.3555 109.9454 -164.7061
v  25.3555 115.3358 -164.7061
v  25.3555 115.3358 167.1108
v  25.3555 109.9454 167.1108
v  25.3555 109.9454 186.6685
v  25.3555 115.3358 186.6685
v  25.3555 115.3358 -209.7728
v  25.3555 109.9454 -209.7729
v  25.3555 109.9454 -190.8252
v  25.3555 115.3358 -190.8252
v  25.3555 109.9454 209.8112
v  25.3555 115.3358 209.8112
v  25.3555 115.3358 193.2278
v  25.3555 109.9454 193.2278
v  25.6304 69.8635 -213.0524
v  25.6304 50.7946 -213.0527
v  25.6304 50.7946 -109.8797
v  25.6304 69.8635 -109.8798
v  25.6304 50.7946 -4.0988
v  25.6304 69.8635 -4.0989
v  25.6304 69.8635 -107.2714
v  25.6304 50.7946 -107.2713
v  25.6304 69.8635 4.1547
v  25.6304 50.7946 4.1547
v  25.6304 50.7946 107.3186
v  25.6304 69.8635 107.3186
v  25.6303 50.7946 213.0909
v  25.6303 69.8635 213.0909
v  25.6304 69.8635 109.9268
v  25.6304 50.7946 109.9268
v  25.6304 106.6701 -213.0524
v  25.6304 91.9935 -213.0525
v  25.6304 91.9935 -109.8799
v  25.6304 106.6701 -109.8798
v  25.6304 91.9935 -4.0987
v  25.6304 106.6701 -4.0987
v  25.6304 106.6701 -107.2715
v  25.6304 91.9935 -107.2714
v  25.6304 90.4429 -213.0525
v  25.6304 71.3678 -213.0526
v  25.6304 71.3678 -109.8799
v  25.6304 90.4429 -109.8799
v  25.6304 71.3678 -4.0988
v  25.6304 90.4429 -4.0988
v  25.6304 90.4429 -107.2715
v  25.6304 71.3678 -107.2713
v  25.6304 13.9586 -4.0987
v  25.6304 28.6253 -4.0988
v  25.6304 28.6253 -107.2715
v  25.6304 13.9586 -107.2715
v  25.6304 28.6253 -213.0527
v  25.6304 13.9586 -213.0526
v  25.6304 13.9586 -109.8799
v  25.6304 28.6253 -109.8797
v  25.6304 30.1957 -4.0988
v  25.6304 49.2316 -4.0987
v  25.6304 49.2316 -107.2715
v  25.6304 30.1957 -107.2715
v  25.6304 49.2316 -213.0525
v  25.6304 30.1957 -213.0526
v  25.6304 30.1957 -109.8798
v  25.6304 49.2316 -109.8799
v  25.6304 106.6701 4.1547
v  25.6304 91.9935 4.1546
v  25.6304 91.9935 107.3186
v  25.6304 106.6701 107.3186
v  25.6304 91.9935 213.0909
v  25.6303 106.6701 213.0909
v  25.6303 106.6701 109.9269
v  25.6304 91.9935 109.9268
v  25.6304 90.4428 4.1546
v  25.6304 71.3678 4.1546
v  25.6304 71.3678 107.3187
v  25.6304 90.4429 107.3186
v  25.6304 71.3678 213.0909
v  25.6303 90.4428 213.0909
v  25.6304 90.4429 109.9268
v  25.6304 71.3678 109.9268
v  25.6304 13.9586 213.0909
v  25.6303 28.6253 213.0909
v  25.6304 28.6253 109.9269
v  25.6304 13.9586 109.9268
v  25.6304 28.6253 4.1546
v  25.6304 13.9586 4.1546
v  25.6304 13.9586 107.3186
v  25.6304 28.6253 107.3187
v  25.6303 30.1957 213.0909
v  25.6304 49.2316 213.0909
v  25.6304 49.2315 109.9269
v  25.6304 30.1957 109.9269
v  25.6304 49.2316 4.1546
v  25.6304 30.1957 4.1546
v  25.6304 30.1957 107.3187
v  25.6304 49.2316 107.3186
# 96 vertices

vn -1.0000 0.0000 0.0000
vn -1.0000 -0.0000 0.0000
vn -1.0000 -0.0000 -0.0000
vn -1.0000 0.0000 -0.0000
# 4 vertex normals

vt 0.1425 0.9904 0.0000
vt 0.1425 0.9653 0.0000
vt 0.2335 0.9653 0.0000
vt 0.2335 0.9904 0.0000
vt 0.7799 0.9861 0.0000
vt 0.7799 0.9610 0.0000
vt 0.8709 0.9610 0.0000
vt 0.8709 0.9861 0.0000
vt 0.0238 0.9904 0.0000
vt 0.0238 0.9653 0.0000
vt 0.1120 0.9653 0.0000
vt 0.1120 0.9904 0.0000
vt 0.9786 0.9610 0.0000
vt 0.9786 0.9861 0.0000
vt 0.9014 0.9861 0.0000
vt 0.9014 0.9610 0.0000
vt 0.0083 0.7719 0.0000
vt 0.0083 0.6849 0.0000
vt 0.2852 0.6849 0.0000
vt 0.2852 0.7719 0.0000
vt 0.9130 0.6824 0.0000
vt 0.9130 0.7693 0.0000
vt 0.4700 0.7693 0.0000
vt 0.4700 0.6824 0.0000
vt 0.0042 0.3309 0.0000
vt 0.0042 0.2623 0.0000
vt 0.2829 0.2623 0.0000
vt 0.2829 0.3309 0.0000
vt 0.9183 0.2586 0.0000
vt 0.9183 0.3258 0.0000
vt 0.4683 0.3258 0.0000
vt 0.4683 0.2586 0.0000
vt 0.0083 0.9457 0.0000
vt 0.0083 0.8588 0.0000
vt 0.2852 0.8588 0.0000
vt 0.2852 0.9457 0.0000
vt 0.9130 0.8588 0.0000
vt 0.9130 0.9457 0.0000
vt 0.4700 0.9457 0.0000
vt 0.4700 0.8588 0.0000
vt 0.9130 0.7710 0.0000
vt 0.9130 0.8579 0.0000
vt 0.4700 0.8579 0.0000
vt 0.4700 0.7710 0.0000
vt 0.9130 0.5073 0.0000
vt 0.9130 0.5942 0.0000
vt 0.4700 0.5942 0.0000
vt 0.4700 0.5073 0.0000
vt 0.0083 0.5980 0.0000
vt 0.0083 0.5111 0.0000
vt 0.2852 0.5111 0.0000
vt 0.2852 0.5980 0.0000
vt 0.9130 0.5946 0.0000
vt 0.9130 0.6815 0.0000
vt 0.4700 0.6815 0.0000
vt 0.4700 0.5946 0.0000
vt 0.0042 0.4882 0.0000
vt 0.0042 0.4008 0.0000
vt 0.2829 0.4008 0.0000
vt 0.2829 0.4882 0.0000
vt 0.9183 0.3942 0.0000
vt 0.9183 0.4859 0.0000
vt 0.4683 0.4859 0.0000
vt 0.4683 0.3942 0.0000
vt 0.9183 0.3270 0.0000
vt 0.4683 0.3270 0.0000
vt 0.9183 0.1129 0.0000
vt 0.9183 0.1858 0.0000
vt 0.4683 0.1858 0.0000
vt 0.4683 0.1129 0.0000
vt 0.0042 0.1895 0.0000
vt 0.0042 0.1166 0.0000
vt 0.2829 0.1166 0.0000
vt 0.2829 0.1895 0.0000
# 74 texture coords

g Object1488
s 4
f 175/176/25 176/177/25 177/178/25 178/179/25 
f 179/180/26 180/181/26 181/182/26 182/183/26 
f 183/184/27 184/185/27 185/186/27 186/187/27 
f 187/188/26 188/189/26 189/190/25 190/191/25 
f 191/192/27 192/193/27 193/194/28 194/195/28 
f 195/196/27 196/197/27 197/198/27 198/199/27 
f 199/200/27 200/201/27 201/202/27 202/203/27 
f 203/204/27 204/205/27 205/206/28 206/207/28 
f 207/208/27 208/209/27 209/210/27 210/211/27 
f 211/212/28 212/213/28 213/214/28 214/215/28 
f 215/209/27 216/192/27 217/195/27 218/210/27 
f 219/216/27 220/217/27 221/218/25 222/219/25 
f 223/220/27 224/221/27 225/222/27 226/223/27 
f 227/224/27 228/225/27 229/226/27 230/227/27 
f 231/228/27 232/229/27 233/230/28 234/231/28 
f 235/193/28 236/224/28 237/227/28 238/194/28 
f 239/232/27 240/233/27 241/234/27 242/235/27 
f 243/236/27 244/237/27 245/238/27 246/239/27 
f 247/233/27 248/200/27 249/203/28 250/234/28 
f 251/240/27 252/236/27 253/239/27 254/241/27 
f 255/242/27 256/243/27 257/244/28 258/245/28 
f 259/246/27 260/247/27 261/248/27 262/249/27 
f 263/243/28 264/204/28 265/207/28 266/244/28 
f 267/201/27 268/246/27 269/249/28 270/202/28 
# 24 polygons

